ffmpeg version 4.2.2-static https://johnvansickle.com/ffmpeg/  Copyright (c) 2000-2019 the FFmpeg developers
  built with gcc 8 (Debian 8.3.0-6)
  configuration: --enable-gpl --enable-version3 --enable-static --disable-debug --disable-ffplay --disable-indev=sndio --disable-outdev=sndio --cc=gcc --enable-fontconfig --enable-frei0r --enable-gnutls --enable-gmp --enable-libgme --enable-gray --enable-libaom --enable-libfribidi --enable-libass --enable-libvmaf --enable-libfreetype --enable-libmp3lame --enable-libopencore-amrnb --enable-libopencore-amrwb --enable-libopenjpeg --enable-librubberband --enable-libsoxr --enable-libspeex --enable-libsrt --enable-libvorbis --enable-libopus --enable-libtheora --enable-libvidstab --enable-libvo-amrwbenc --enable-libvpx --enable-libwebp --enable-libx264 --enable-libx265 --enable-libxml2 --enable-libdav1d --enable-libxvid --enable-libzvbi --enable-libzimg
  libavutil      56. 31.100 / 56. 31.100
  libavcodec     58. 54.100 / 58. 54.100
  libavformat    58. 29.100 / 58. 29.100
  libavdevice    58.  8.100 / 58.  8.100
  libavfilter     7. 57.100 /  7. 57.100
  libswscale      5.  5.100 /  5.  5.100
  libswresample   3.  5.100 /  3.  5.100
  libpostproc    55.  5.100 / 55.  5.100
Guessed Channel Layout for Input Stream #0.0 : stereo
Input #0, s16le, from 'pipe:':
  Duration: N/A, bitrate: 1411 kb/s
    Stream #0:0: Audio: pcm_s16le, 44100 Hz, stereo, s16, 1411 kb/s
Stream mapping:
  Stream #0:0 -> #0:0 (pcm_s16le (native) -> mp3 (libmp3lame))
Output #0, mp3, to '06a18151-63c9-4162-9fa1-ce37ddb73819_Docker_compose_группы_контейнеров._Docker-4KbL5lbjK-M.mp4.mp3':
  Metadata:
    TSSE            : Lavf58.29.100
    Stream #0:0: Audio: mp3 (libmp3lame), 44100 Hz, stereo, s16p
    Metadata:
      encoder         : Lavc58.54.100 libmp3lame
size=     149kB time=00:00:09.50 bitrate= 128.6kbits/s speed=  19x    size=     256kB time=00:00:25.60 bitrate=  81.9kbits/s speed=25.6x    size=     512kB time=00:00:42.39 bitrate=  98.9kbits/s speed=28.2x    size=     768kB time=00:01:02.27 bitrate= 101.0kbits/s speed=  31x    size=    1024kB time=00:01:21.05 bitrate= 103.5kbits/s speed=32.3x    size=    1536kB time=00:01:40.25 bitrate= 125.5kbits/s speed=33.3x    size=    1792kB time=00:01:57.42 bitrate= 125.0kbits/s speed=33.4x    size=    2048kB time=00:02:12.72 bitrate= 126.4kbits/s speed=33.1x    size=    2304kB time=00:02:31.25 bitrate= 124.8kbits/s speed=33.5x    size=    2560kB time=00:02:47.23 bitrate= 125.4kbits/s speed=33.3x    size=    2560kB time=00:02:57.92 bitrate= 117.9kbits/s speed=32.3x    size=    2816kB time=00:03:09.17 bitrate= 121.9kbits/s speed=31.4x    size=    3072kB time=00:03:17.35 bitrate= 127.5kbits/s speed=30.2x    size=    3072kB time=00:03:25.06 bitrate= 122.7kbits/s speed=29.2x    size=    3328kB time=00:03:35.61 bitrate= 126.4kbits/s speed=28.6x    size=    3328kB time=00:03:45.96 bitrate= 120.7kbits/s speed=28.1x    size=    3584kB time=00:03:54.65 bitrate= 125.1kbits/s speed=27.5x    size=    3584kB time=00:04:03.51 bitrate= 120.6kbits/s speed=26.9x    size=    3840kB time=00:04:12.18 bitrate= 124.7kbits/s speed=26.4x    size=    3840kB time=00:04:18.82 bitrate= 121.5kbits/s speed=25.8x    size=    4096kB time=00:04:27.15 bitrate= 125.6kbits/s speed=25.3x    size=    4096kB time=00:04:36.55 bitrate= 121.3kbits/s speed=  25x    size=    4352kB time=00:04:46.93 bitrate= 124.3kbits/s speed=24.8x    size=    4608kB time=00:04:57.37 bitrate= 126.9kbits/s speed=24.7x    size=    4608kB time=00:05:06.57 bitrate= 123.1kbits/s speed=24.4x    size=    4864kB time=00:05:18.79 bitrate= 125.0kbits/s speed=24.4x    size=    5120kB time=00:05:29.30 bitrate= 127.4kbits/s speed=24.3x    size=    5376kB time=00:05:49.72 bitrate= 125.9kbits/s speed=24.9x    size=    5632kB time=00:06:09.76 bitrate= 124.8kbits/s speed=25.4x    size=    5888kB time=00:06:30.27 bitrate= 123.6kbits/s speed=25.9x    size=    6400kB time=00:06:51.22 bitrate= 127.5kbits/s speed=26.4x    size=    6656kB time=00:07:11.02 bitrate= 126.5kbits/s speed=26.8x    size=    6912kB time=00:07:30.82 bitrate= 125.6kbits/s speed=27.2x    size=    7168kB time=00:07:49.83 bitrate= 125.0kbits/s speed=27.5x    size=    7424kB time=00:08:09.53 bitrate= 124.2kbits/s speed=27.9x    size=    7936kB time=00:08:29.78 bitrate= 127.5kbits/s speed=28.2x    size=    8192kB time=00:08:47.85 bitrate= 127.1kbits/s speed=28.4x    size=    8448kB time=00:09:07.39 bitrate= 126.4kbits/s speed=28.7x    size=    8704kB time=00:09:27.27 bitrate= 125.7kbits/s speed=  29x    size=    8960kB time=00:09:47.65 bitrate= 124.9kbits/s speed=29.3x    size=    9472kB time=00:10:08.23 bitrate= 127.6kbits/s speed=29.6x    size=    9728kB time=00:10:28.27 bitrate= 126.8kbits/s speed=29.8x    size=    9984kB time=00:10:49.11 bitrate= 126.0kbits/s speed=30.1x    size=   10240kB time=00:11:08.34 bitrate= 125.5kbits/s speed=30.3x    size=   10496kB time=00:11:28.04 bitrate= 125.0kbits/s speed=30.5x    size=   11008kB time=00:11:48.44 bitrate= 127.3kbits/s speed=30.7x    size=   11264kB time=00:12:09.23 bitrate= 126.5kbits/s speed=30.9x    size=   11520kB time=00:12:30.21 bitrate= 125.8kbits/s speed=31.2x    size=   11776kB time=00:12:49.64 bitrate= 125.3kbits/s speed=31.3x    size=   12288kB time=00:13:09.00 bitrate= 127.6kbits/s speed=31.5x    size=   12544kB time=00:13:28.85 bitrate= 127.0kbits/s speed=31.6x    size=   12800kB time=00:13:50.06 bitrate= 126.3kbits/s speed=31.8x    size=   13056kB time=00:14:10.52 bitrate= 125.8kbits/s speed=  32x    size=   13568kB time=00:14:31.10 bitrate= 127.6kbits/s speed=32.2x    size=   13824kB time=00:14:51.14 bitrate= 127.1kbits/s speed=32.3x    size=   14080kB time=00:15:09.50 bitrate= 126.8kbits/s speed=32.4x    size=   14336kB time=00:15:29.56 bitrate= 126.3kbits/s speed=32.5x    size=   14592kB time=00:15:49.99 bitrate= 125.8kbits/s speed=32.7x    size=   15104kB time=00:16:10.45 bitrate= 127.5kbits/s speed=32.8x    size=   15360kB time=00:16:31.84 bitrate= 126.9kbits/s speed=  33x    size=   15616kB time=00:16:50.67 bitrate= 126.6kbits/s speed=  33x    size=   15872kB time=00:17:11.60 bitrate= 126.0kbits/s speed=33.2x    size=   16384kB time=00:17:32.84 bitrate= 127.5kbits/s speed=33.3x    size=   16640kB time=00:17:52.87 bitrate= 127.1kbits/s speed=33.4x    size=   16896kB time=00:18:11.26 bitrate= 126.8kbits/s speed=33.5x    size=   17152kB time=00:18:31.61 bitrate= 126.4kbits/s speed=33.6x    size=   17664kB time=00:18:52.93 bitrate= 127.7kbits/s speed=33.7x    size=   17920kB time=00:19:13.17 bitrate= 127.3kbits/s speed=33.8x    size=   18176kB time=00:19:25.76 bitrate= 127.7kbits/s speed=33.7x    size=   18432kB time=00:19:47.16 bitrate= 127.2kbits/s speed=33.8x    size=   18688kB time=00:20:06.72 bitrate= 126.9kbits/s speed=33.9x    size=   18944kB time=00:20:25.56 bitrate= 126.6kbits/s speed=  34x    size=   19456kB time=00:20:45.70 bitrate= 127.9kbits/s speed=  34x    size=   19712kB time=00:21:06.23 bitrate= 127.5kbits/s speed=34.1x    size=   19968kB time=00:21:26.94 bitrate= 127.1kbits/s speed=34.2x    size=   20224kB time=00:21:47.01 bitrate= 126.8kbits/s speed=34.3x    size=   20736kB time=00:22:07.38 bitrate= 128.0kbits/s speed=34.4x    size=   20992kB time=00:22:27.24 bitrate= 127.6kbits/s speed=34.5x    size=   21079kB time=00:22:29.04 bitrate= 128.0kbits/s speed=34.5x    
video:0kB audio:21079kB subtitle:0kB other streams:0kB global headers:0kB muxing overhead: 0.001172%
